<svg xmlns="http://www.w3.org/2000/svg" viewBox="0 0 64 64" role="img" aria-label="Apple icon">
  <path
    fill="#111827"
    d="M40.72 8.52c-2.08 2.5-5.54 4.45-8.63 4.18-.39-3.03 1.1-6.16 3.09-8.38 2.18-2.44 5.85-4.19 8.85-4.32.33 3.23-.93 6.45-3.31 8.52ZM50.74 33.7c-.07-7.41 6.04-10.96 6.31-11.12-3.44-5.03-8.79-5.72-10.66-5.8-4.54-.46-8.85 2.67-11.16 2.67-2.31 0-5.89-2.6-9.69-2.53-4.99.07-9.58 2.9-12.15 7.38-5.19 8.99-1.32 22.3 3.73 29.59 2.47 3.55 5.41 7.54 9.27 7.39 3.71-.15 5.11-2.4 9.6-2.4 4.49 0 5.75 2.4 9.67 2.33 4-.07 6.53-3.62 8.98-7.19 2.83-4.13 4-8.13 4.07-8.34-.09-.03-7.8-2.99-7.97-11.98Z"
  />
</svg>
